<svg width="100" height="100" viewBox="0 0 100 100" fill="none" xmlns="http://www.w3.org/2000/svg">
<rect width="100" height="100" rx="16" fill="white"/>
<path d="M49.9993 22C68.2247 22 82.9993 34.536 82.9993 50C82.9993 65.464 68.2247 78 49.9993 78C43.4419 77.9999 37.3311 76.3763 32.1946 73.5781C29.6101 75.595 27.6964 76.5108 23.9993 78C25.7159 75.2964 26.5342 73.6568 27.2004 70.2422C20.9151 65.1442 16.9993 57.9602 16.9993 50C16.9993 34.5362 31.7741 22.0002 49.9993 22ZM27.22 34C25.9053 34 24.7391 34.8567 24.3723 36.1191C21.3326 46.584 21.0952 53.3088 24.3489 63.9346C24.7275 65.1707 25.8822 66 27.175 66H71.969C73.2 65.9999 74.3126 65.2468 74.7385 64.0918C78.5137 53.8497 78.5652 47.0988 74.7151 35.9727C74.3042 34.7854 73.1745 34 71.9182 34H27.22ZM18.7727 40C14.7729 47.9999 16.7728 57.9999 19.7727 62C16.7728 61.4999 13.3701 58.896 12.7727 58C10.7728 55 10.2729 48 12.2727 45C13.7727 42.5001 15.273 41 18.7727 40ZM81.2268 40C84.7266 41 86.2269 42.5002 87.7268 45C89.7267 48 89.2267 55 87.2268 58C86.6292 58.8961 83.2266 61.4999 80.2268 62C83.2267 57.9999 85.2267 47.9999 81.2268 40Z" fill="black"/>
<path d="M30.8686 55V44.92H32.6886V55H30.8686ZM34.4233 55V44.92H36.6773L41.5913 53.684L41.0733 53.81V44.92H42.8373V55H40.5833L35.6693 46.236L36.1873 46.11V55H34.4233ZM49.3978 55.14C48.3338 55.14 47.4145 54.93 46.6398 54.51C45.8652 54.0807 45.2678 53.4833 44.8478 52.718C44.4278 51.9433 44.2178 51.038 44.2178 50.002C44.2178 48.966 44.4278 48.0607 44.8478 47.286C45.2678 46.502 45.8512 45.8907 46.5978 45.452C47.3445 45.004 48.2125 44.78 49.2018 44.78C50.0045 44.78 50.7232 44.9293 51.3578 45.228C52.0018 45.5173 52.5198 45.9187 52.9118 46.432C53.3132 46.936 53.5558 47.524 53.6398 48.196H51.8198C51.7265 47.5987 51.4465 47.1273 50.9798 46.782C50.5132 46.4367 49.9298 46.264 49.2298 46.264C48.5952 46.264 48.0398 46.4133 47.5638 46.712C47.0878 47.0107 46.7192 47.4353 46.4578 47.986C46.1965 48.5367 46.0658 49.1947 46.0658 49.96C46.0658 50.744 46.1965 51.416 46.4578 51.976C46.7285 52.5267 47.1158 52.9467 47.6198 53.236C48.1332 53.5253 48.7585 53.67 49.4958 53.67C50.0652 53.67 50.5552 53.6 50.9658 53.46C51.3765 53.3107 51.7078 53.0913 51.9598 52.802L53.7098 53.488C53.1778 54.0293 52.5618 54.44 51.8618 54.72C51.1618 55 50.3405 55.14 49.3978 55.14ZM51.8898 53.488V50.548L52.3238 50.982H49.4818V49.554H53.7098V53.488H51.8898ZM55.2592 55V44.92H57.0792V55H55.2592ZM58.8139 55V44.92H61.0679L65.9819 53.684L65.4639 53.81V44.92H67.2279V55H64.9739L60.0599 46.236L60.5779 46.11V55H58.8139Z" fill="black"/>
</svg>
